title: $:/_Story/Images/iconOrchid.svg
creator: Magnus Evald
type: image/svg+xml

<svg xmlns:svg="http://www.w3.org/2000/svg" xmlns="http://www.w3.org/2000/svg" width="256" height="256" viewBox="0 0 256 256" version="1.1"><style>.s0{fill:none;stroke-width:1;stroke:#a6a6a6;}</style><g transform="matrix(1.0279148,0,0,1.0279395,-5.7131799,-26.41996)" style="stroke-width:1;stroke:#a6a6a6"><path d="m120 169.9c-1.7-0.8-8.8-2.3-10.8-1.3-12.5 8.8-14.1 23.1-14.9 29.4-0.6 5.7-9.1 22.3-17.5 24.8-11.5 3.2-32.4-0.8-41-8.8-7.5-7.2-16.4-15.4-18.9-23.9-1.3-4.3-0.4-7.1-2.5-11.2-1.8-4.6-8.1-15.8-8.3-21.9-0.3-8.8 1.7-16.1 5.9-21.3 4.4-1.9 10.2-17.7 19.5-25.4 8-9.4 26.1-19.6 34.1-22.7 2.1-0.2 20.2-2.2 21.4-1.7 8 1 15.5 3 22.1 7 4 2.7 10.1 10 5.4 18.7-2.9 6.8-4.2 15.2-4.4 21.3 4.9 13 7.8 13.4 15.5 22.2M140.2 169.2c1.7-0.8 8.8-2.3 10.8-1.3 12.5 8.8 14.1 23.1 14.9 29.4 0.6 5.7 9.1 22.3 17.5 24.8 11.5 3.2 32.4-0.8 41-8.8 7.5-7.2 16.4-15.4 18.9-23.9 1.3-4.3 0.4-7.1 2.5-11.2 1.8-4.6 8.1-15.8 8.3-21.9 0.3-8.8-1.7-16.1-5.9-21.3-4.4-1.9-10.2-17.7-19.5-25.4-8-9.4-26.1-19.6-34.1-22.7-2.1-0.2-20.2-2.2-21.4-1.7-8 1-15.5 3-22.1 7-4 2.7-10.1 10-5.4 18.7 2.9 6.8 4.2 15.2 4.4 21.3-4.9 13-7.8 13.4-15.5 22.2M88.8 86.2c2-14.6 25-39.6 41.6-40 16.4-0.2 40.1 26.8 41 39.4M45.6 220.2c-2.1 18.4 2 31.3 8.4 32.4C65.6 254.6 94.7 243.2 106.2 230.6M214.8 220.1c2.1 18.4-2 31.3-8.4 32.4-11.6 2-40.7-9.4-52.2-22M125.2 163c-3.9 5.4-6.5 10.6-4.3 12.8 4 4 15.2 3.8 19.1-0.2C142.3 173.4 139.2 168.1 135 162.6M111 168c0 0 8 7.3 5.8 8.6-7.8 4.7-14.3 18 5.4 22.8M107.8 169.2c0.5 4.2-1 8.2-2.9 12.1-2.5 5-6.9 9.3-7.4 14.2-1.2 13.3 1.6 22.6 7.2 24.2C109.8 221 119.5 208.5 127.7 207.1M149.2 167.5c0 0-7.8 7.5-5.6 8.8 7.8 4.7 14.3 18-5.4 22.8M152.6 168.9c-0.5 4.2 1 8.2 2.9 12.1 2.5 5 6.9 9.3 7.4 14.2 1.2 13.3-1.6 22.6-7.2 24.2-5 1.4-14.8-10.8-23-12.2M100 215.2c-4.2 3.7-4.1 5.7-1.2 9 3 3.1 7 7.2 11.4 10.2 7.4 5.1 14.2 14.6 20.4 15.8 5.3-0.9 13.1-8.9 19.8-16.2 3.6-3.9 8.4-4.1 13.2-12.8 1.5-2.7-3.2-6-3.2-6M125.6 179c-0.4 3.2-0.5 7-0.8 9.6M128 192.4c-4.1-5.5-8.3-5.3-8.3-5.3 1.8 4.8 0.7 7.3 1.7 10.3 2.7 4 3 6.7 5.4 8.8 1.9 1.6 3.6 3.3 5 1.8 3-3 5.7-6.6 7.3-10.4 1.7-4.2 0.5-7.2 1.7-10.6 0 0-4.1 0.1-8.6 5.6M135.2 178.2c-0.5 5.1 0.4 7.4 0.5 11.3M129 194.8l0.4 8.1M131.3 194.8l-0.1 7.9" class="s0"/><ellipse ry="0.2" rx="0.3" cy="192.2" cx="129.9" style="fill:#000;stroke-linecap:round;stroke-linejoin:bevel;stroke-width:1;stroke:#a6a6a6"/></g></svg>
