<?xml version="1.0"?>
<!DOCTYPE svg PUBLIC "-//W3C//DTD SVG 1.1//EN" "http://www.w3.org/Graphics/SVG/1.1/DTD/svg11.dtd">
<svg xmlns:svg="http://www.w3.org/2000/svg" xmlns="http://www.w3.org/2000/svg" width="256" height="256" viewBox="0 0 256 256" version="1.1"><style>.s0{fill:none;stroke-width:4;stroke:#000;}</style><path d="m99.5 61.1c-3.8 3.7-5.1 9.2-7.8 13.7-8.2 16.6-16.8 33.2-24.8 49.9-1.7 4 2.7 7.6 6.6 6.7 37-0.1 74.1 0.2 111.1-0.1 4.4-0.3 5.6-5.8 3.1-8.9-10.1-19.8-19.9-39.7-30.3-59.3-3.1-4.3-9-2.1-13.4-2.6-14.1 0.1-28.3-0.2-42.4 0.1-0.7 0.2-1.3 0.4-2 0.5z" style="fill:#a0a0a0;opacity:0.5"/><g transform="translate(0,-796.36216)"><path d="M116.4 816.1 12.4 1022.3c-7.1 14.1-6.1 21.9 8.9 22l208.7 1.3c16.8 0.1 21.9-6.3 14.6-20.7L138.4 815.7c-7.6-15.1-14.8-13.7-22 0.4z" style="fill:none;stroke-linecap:round;stroke-width:15;stroke:#000"/><path d="m26.5 988.4 202 0M58.5 924.9l137.5 0M91.5 859.4l72.5 0" class="s0"/></g></svg>