<?xml version="1.0"?>
<!DOCTYPE svg PUBLIC "-//W3C//DTD SVG 1.1//EN" "http://www.w3.org/Graphics/SVG/1.1/DTD/svg11.dtd">
<svg viewBox="0 0 320 320" width="256" height="256" version="1.1" xmlns="http://www.w3.org/2000/svg" xmlns:svg="http://www.w3.org/2000/svg"><style>.s0{fill:none;stroke-width:40;stroke:#000;}.s1{opacity:0.2;}</style><g transform="translate(0 -732.362)"><g><path d="m60.5 892.4l0 140M20 1032.4c25.4 0 66.3 0 80 0M20 892.4c25.4 0 66.3 0 80 0" class="s0"/></g><g opacity="0.2"><path d="m162.5 822.4l0 210M120 1032.4c25.4 0 66.3 0 80 0M120 822.4c25.4 0 66.3 0 80 0" class="s0"/></g><g opacity="0.2"><path d="m262.5 752.4l0 280M220 1032.4c25.4 0 66.3 0 80 0M220 752.4c25.4 0 66.3 0 80 0" class="s0"/></g></g></svg>