<?xml version="1.0"?>
<!DOCTYPE svg PUBLIC "-//W3C//DTD SVG 1.1//EN" "http://www.w3.org/Graphics/SVG/1.1/DTD/svg11.dtd">
<svg xmlns:svg="http://www.w3.org/2000/svg" xmlns="http://www.w3.org/2000/svg" viewBox="0 0 256 256" x="0" y="0" width="256" height="256" version="1.1" xml:space="preserve"><style>.s0{fill:none;stroke-linecap:round;stroke-width:20;stroke:#000;}</style><g transform="scale(3.1013)"/><g transform="translate(0 173.36)"/><g transform="translate(0 173.36)"/><g transform="translate(0 173.36)"/><g transform="translate(0 173.36)"/><g transform="translate(0 173.36)"/><g transform="translate(0 173.36)"/><g transform="translate(0 173.36)"/><g transform="translate(0 173.36)"/><g transform="translate(0 173.36)"/><g transform="translate(0 173.36)"/><g transform="translate(0 173.36)"/><g transform="translate(0 173.36)"/><g transform="translate(0 173.36)"/><g transform="translate(0 173.36)"/><g transform="translate(0 173.36)"/><circle cx="128" cy="128" r="55.5" style="fill:none;stroke-linecap:round;stroke-linejoin:bevel;stroke-width:20;stroke:#000"/><path d="m10.1 128 31.7 0" class="s0"/><path d="m214.1 128 31.7 0" class="s0"/><path d="M128.3 9.9 128 41.9" class="s0"/><path d="m128.3 213.9-0.3 31.9" class="s0"/><path d="M68.9 187.1 40.1 215.9" class="s0"/><path d="M218.9 37.1 190.1 65.9" class="s0"/><path d="M40.1 37.1 68.9 65.9" class="s0"/><path d="m190.1 187.1 28.8 28.8" class="s0"/><path d="m128.2 75.5c-17.6 1.3-34.7 11.3-42.7 27.3-6.1 11.6-7.1 25.9-3.2 38.4 6.2 19.8 25.6 34.5 46.4 34.9 5-0.1 5.6-5.7 5.1-9.6-0.1-28.8 0.2-57.7-0.2-86.5-0.3-2.8-2.8-4.5-5.5-4.4z" fill="#040101"/></svg>