<?xml version="1.0"?>
<!DOCTYPE svg PUBLIC "-//W3C//DTD SVG 1.1//EN" "http://www.w3.org/Graphics/SVG/1.1/DTD/svg11.dtd">
<svg xmlns:svg="http://www.w3.org/2000/svg" xmlns="http://www.w3.org/2000/svg" width="256" height="256" viewBox="0 0 256 256" version="1.1"><style>.s0{fill:none;stroke-width:4;stroke:#000;}</style><path d="m34.5 190.1c-3.8 3.7-5.1 9.2-7.8 13.7-5.2 10.9-11.4 21.5-15.4 32.9-1.5 4.5 2.9 8.9 7.4 8.1 65.5 1 131.1 1.2 196.6 1.4 8.3-0.3 16.8 0.6 25-1.1 4.9-1.3 5.8-7.3 3.5-11.2-6.5-14.3-13.7-28.2-20.9-42.1-2.9-4-8.5-1.8-12.6-2.4-57.7 0-115.5 0-173.2 0-0.8 0.2-1.7 0.4-2.5 0.7z" style="fill:#a0a0a0;opacity:0.5"/><g transform="translate(0,-796.36216)"><path d="M116.4 816.1 12.4 1022.3c-7.1 14.1-6.1 21.9 8.9 22l208.7 1.3c16.8 0.1 21.9-6.3 14.6-20.7L138.4 815.7c-7.6-15.1-14.8-13.7-22 0.4z" style="fill:none;stroke-linecap:round;stroke-width:15;stroke:#000"/><path d="m26.5 988.4 202 0M58.5 924.9l137.5 0M91.5 859.4l72.5 0" class="s0"/></g></svg>