<?xml version="1.0"?>
<!DOCTYPE svg PUBLIC "-//W3C//DTD SVG 1.1//EN" "http://www.w3.org/Graphics/SVG/1.1/DTD/svg11.dtd">
<svg xmlns="http://www.w3.org/2000/svg" xml:space="preserve" height="64" viewBox="0 0 64 64" width="64" version="1.1" y="0" x="0"><g transform="matrix(.32862 0 0 .32787 -.073420 0)"><path d="m90.2 42.7c-42 0-76.2 34.2-76.2 76.2 0 42 34.2 76.2 76.2 76.2 42 0 76.2-34.2 76.2-76.2 0-42-34.2-76.2-76.2-76.2zm-66.7 76.2c0-36.8 29.9-66.7 66.7-66.7s66.7 29.9 66.7 66.7h-133.4zM27.5 21.9 27.5 21.9h32.6v3.4h-32.6v-3.4zm1.1-21.9 31.5 8.4-0.9 3.3-31.4-8.4 0.9-3.3zm31.5 38.9-31.4 8.4-0.9-3.3l31.5-8.4 0.9 3.3zM147.2 5.8c-17.3 0-31.4 6.8-33.6 15.5h-9.1v-11.9h-28.6v8.1h-6.3v12.5h6.3v8.1h28.6v-11.9h9.1c2.2 8.7 16.4 15.5 33.6 15.5 18.8 0 34.1-8 34.1-17.9 0-9.9-15.3-17.9-34.1-17.9z"/></g></svg>