<?xml version="1.0"?>
<!DOCTYPE svg PUBLIC "-//W3C//DTD SVG 1.1//EN" "http://www.w3.org/Graphics/SVG/1.1/DTD/svg11.dtd">
<svg xmlns:svg="http://www.w3.org/2000/svg" xmlns="http://www.w3.org/2000/svg" viewBox="0 0 256 256" width="256" height="256" version="1.1"><style>.s0{fill:none;stroke-width:7;stroke:#000;}</style><style>.s0{baseline-shift:baseline;block-progression:tb;direction:ltr;text-align:start;text-indent:0;text-transform:none;}</style><path d="M93.3 216.8 21.3 156.5C10.2 145.3 22.2 133.5 22.2 133.5-33.2 72.6 49.1-1.4 108.9 52.1c9.9-8.8 18.4-4.8 25.1 0.9l57.8 51.5c6.8 6.1 7.5 12.2 1.5 19.7-10.9 13.7-19.1 22.7-35.3 42.5l52.1-9.2c6.9-23.1 30.7-37.1 32.2-26.4l9.7 66.4c2 13.5-34 1.2-39.2-16l-77.7 14.7c0 0-11.6 14.7-18.1 21.4-6.8 7-14.8 7.1-23.7-0.7zM34.8 118 92.1 65.6C57.2 25.1-5.3 81.9 34.8 118ZM91.8 196.5c9.5 5.7 14.7 5.9 21.5-2.3l57.6-70.5c6-9 3.1-12-4-18.2L125.8 69.4c-7-6.1-11.8-3-18.7 3.7L41.8 135.8c-5.3 5.8-5.5 11.8 2.7 19z" class="s0"/><path d="m78.5 99.4c-4 2.3-6.8 6.1-10.3 9.1-8.7 8.6-18 16.7-26.2 25.8-2.6 3.2-3.8 7.8-1.5 11.4 3 6.1 9 9.7 13.7 14.4 13.7 12 27.2 24.2 41.3 35.7 4.2 2.5 9.7 4.8 14.4 2.1 5.5-2.5 8.4-8.1 12.4-12.4 7.1-8.8 14.6-17.3 21.2-26.4 2.1-2.8 1-6.8-1.9-8.6-19.4-16.9-38.8-33.8-58.4-50.4-1.4-1-3.1-1.2-4.7-0.8z" fill="#0d0404"/></svg>