<?xml version="1.0"?>
<!DOCTYPE svg PUBLIC "-//W3C//DTD SVG 1.1//EN" "http://www.w3.org/Graphics/SVG/1.1/DTD/svg11.dtd">
<svg xmlns:svg="http://www.w3.org/2000/svg" xmlns="http://www.w3.org/2000/svg" width="256" height="256" viewBox="0 0 256 256" version="1.1"><style>.s0{fill:none;stroke-width:4;stroke:#000;}</style><path d="m125.1 12.5c-5.2 4.7-7.3 11.8-10.8 17.7-4.8 9.8-10.2 19.5-14.5 29.4-1.3 3.9 3 7.1 6.7 6.3 15-0.1 30 0.3 44.9-0.4 4.1-0.8 5.1-5.9 2.8-9-7.1-13.9-13.9-28.1-21.6-41.7-1.5-2.7-4.5-3.8-7.3-2.4z" style="fill:#a0a0a0;opacity:0.5"/><g transform="translate(0,-796.36216)"><path d="M116.4 816.1 12.4 1022.3c-7.1 14.1-6.1 21.9 8.9 22l208.7 1.3c16.8 0.1 21.9-6.3 14.6-20.7L138.4 815.7c-7.6-15.1-14.8-13.7-22 0.4z" style="fill:none;stroke-linecap:round;stroke-width:15;stroke:#000"/><path d="m26.5 988.4 202 0M58.5 924.9l137.5 0M91.5 859.4l72.5 0" class="s0"/></g></svg>