<?xml version="1.0"?>
<!DOCTYPE svg PUBLIC "-//W3C//DTD SVG 1.1//EN" "http://www.w3.org/Graphics/SVG/1.1/DTD/svg11.dtd">
<svg xmlns:svg="http://www.w3.org/2000/svg" xmlns="http://www.w3.org/2000/svg" viewBox="0 0 256 256" x="0" y="0" width="256" height="256" version="1.1" xml:space="preserve"><style>.s0{fill:none;stroke-linecap:round;stroke-width:20;stroke:#000;}</style><g transform="scale(3.1013)"/><g transform="translate(0 173.36)"/><g transform="translate(0 173.36)"/><g transform="translate(0 173.36)"/><g transform="translate(0 173.36)"/><g transform="translate(0 173.36)"/><g transform="translate(0 173.36)"/><g transform="translate(0 173.36)"/><g transform="translate(0 173.36)"/><g transform="translate(0 173.36)"/><g transform="translate(0 173.36)"/><g transform="translate(0 173.36)"/><g transform="translate(0 173.36)"/><g transform="translate(0 173.36)"/><g transform="translate(0 173.36)"/><g transform="translate(0 173.36)"/><circle r="55.5" cy="128" cx="128" style="fill:#030303;stroke-linecap:round;stroke-linejoin:bevel;stroke-width:20;stroke:#000"/><path d="m10.1 128 31.7 0" class="s0"/><path d="m214.1 128 31.7 0" class="s0"/><path d="M128.3 9.9 128 41.9" class="s0"/><path d="m128.3 213.9-0.3 31.9" class="s0"/><path d="M68.9 187.1 40.1 215.9" class="s0"/><path d="M218.9 37.1 190.1 65.9" class="s0"/><path d="M40.1 37.1 68.9 65.9" class="s0"/><path d="m190.1 187.1 28.8 28.8" class="s0"/></svg>